<?xml version="1.0" encoding="utf-8"?>
<!-- Generator: Adobe Illustrator 18.0.0, SVG Export Plug-In . SVG Version: 6.00 Build 0)  -->
<!DOCTYPE svg PUBLIC "-//W3C//DTD SVG 1.1//EN" "http://www.w3.org/Graphics/SVG/1.1/DTD/svg11.dtd">
<svg version="1.1" id="Layer_1" xmlns="http://www.w3.org/2000/svg" xmlns:xlink="http://www.w3.org/1999/xlink" x="0px" y="0px"
	 viewBox="0 0 300 300" enable-background="new 0 0 300 300" xml:space="preserve">
<path fill="#867260" stroke="#D1D3D4" stroke-width="2" stroke-miterlimit="10" d="M287.3,297.1H12.7c-5.4,0-9.8-4.4-9.8-9.8V12.7
	c0-5.4,4.4-9.8,9.8-9.8h274.5c5.4,0,9.8,4.4,9.8,9.8v274.5C297.1,292.6,292.6,297.1,287.3,297.1z"/>
<g id="XMLID_1_">
	<g>
		<path fill="#3D3D3E" d="M184.2,106.7c0-27.1,42.4-74.3,66.7-74.3c3.6,0,9.8,13.7,9.8,21.6c0,35-9.1,95.9-14.3,95.9
			c0,22-5.9,60.3-9.2,60.3c0,14.8-33.6,40.6-53,40.6v0.2c0,5.9-22.3,16-36.2,16.7c-13.9-0.7-36.2-10.8-36.2-16.7v-0.2
			c-19.3,0-53-25.8-53-40.6c-3.3,0-9.2-38.3-9.2-60.3c-5.2,0-14.3-60.9-14.3-95.9c0-7.8,6.3-21.6,9.8-21.6
			c24.3,0,66.7,47.2,66.7,74.3c0-3.2,20.2-8.9,31.8-8.9c0.9,0,2,0,2.9,0c0,0,1.4,0,2.9,0c1,0,2.2,0,2.9,0
			C164.1,97.7,184.2,103.3,184.2,106.7z"/>
	</g>
</g>
<path fill="none" stroke="#000000" stroke-width="2" stroke-linecap="round" stroke-miterlimit="10" d="M112,189.1
	c-27.9,0-76.5-9.3-76.5-14.6"/>
<path fill="none" stroke="#000000" stroke-width="2" stroke-linecap="round" stroke-miterlimit="10" d="M105.5,208.5
	c-19.6,0-53.8,7-53.8,11"/>
<path fill="none" stroke="#000000" stroke-width="2" stroke-linecap="round" stroke-miterlimit="10" d="M112,196.8
	c-24.3,0-66.7-1.2-66.7-1.9"/>
<path fill="none" stroke="#000000" stroke-width="2" stroke-linecap="round" stroke-miterlimit="10" d="M188,189.7
	c27.9,0,76.5-9.3,76.5-14.6"/>
<path fill="none" stroke="#000000" stroke-width="2" stroke-linecap="round" stroke-miterlimit="10" d="M191.9,208.5
	c19.6,0,53.8,7,53.8,11"/>
<path fill="none" stroke="#000000" stroke-width="2" stroke-linecap="round" stroke-miterlimit="10" d="M188,197.4
	c24.3,0,66.7-1.2,66.7-1.9"/>
<g enable-background="new    ">
	<path fill="#FFFFFF" d="M137,189.1v-2.5c0-7.9,0.6-12.9,1.9-14.9c1.2-2.1,4.5-5,9.8-9c2.8-2,4.7-3.9,5.8-5.7
		c1.1-1.8,1.6-3.9,1.6-6.5c0-3.2-1-5.7-3.1-7.6c-2-1.8-4.5-2.8-7.4-2.8c-7.7,0-12,5.4-13,16.3l-17.8-2.5c1.3-9.8,4.9-17.2,10.8-22.3
		c5.8-5,13-7.6,21.4-7.6c8.6,0,15.8,2.5,21.6,7.4c5.8,4.9,8.7,11.2,8.7,18.8c0,9.4-4.8,17.3-14.5,23.6c-4.2,2.8-6.8,4.9-7.6,6.5
		c-0.9,1.6-1.3,4.4-1.3,8.7H137z M157.1,214.5h-20.4v-19.7h20.4V214.5z"/>
</g>
</svg>
